<svg width="62" height="57" viewBox="0 0 62 57" fill="none" xmlns="http://www.w3.org/2000/svg">
<path d="M34.0803 0C18.8976 0 6.54655 12.3801 6.17765 27.791V28.5035H0L10.3516 42.0375L20.3616 28.5035H11.235V27.791C11.6004 16.311 22.7505 5.17038 34.0803 5.17038C45.6458 5.17038 56.9461 16.7003 56.9461 28.5035C56.9461 40.3066 45.6458 51.8366 34.0803 51.8366C29.621 51.8392 25.2786 50.3859 21.6916 47.6902L16.8892 50.9594C21.7907 54.8794 27.846 57.0071 34.0803 57C49.5021 57 62 44.2445 62 28.5035C62 12.7624 49.5021 0 34.0803 0ZM32.5889 11.1254V28.5035C32.5928 29.4244 32.9523 30.3069 33.5897 30.9607L42.5956 42.0827C43.5622 41.4466 44.4742 40.7307 45.2837 39.9L37.496 31.9791V11.1254H32.5889Z" fill="#002614"/>
</svg>
