<svg width="30" height="15" viewBox="0 0 30 15" fill="none" xmlns="http://www.w3.org/2000/svg">
<path d="M28.8281 6.24597H4.01029L8.12146 2.30429C8.58019 1.86442 8.58195 1.14957 8.12539 0.707609C7.66883 0.265593 6.9268 0.263956 6.46806 0.703771L0.344788 6.57474C0.344377 6.57508 0.344084 6.57548 0.343733 6.57581C-0.113825 7.01569 -0.11529 7.73285 0.343616 8.17419C0.344026 8.17452 0.344319 8.17492 0.34467 8.17526L6.46795 14.0462C6.92662 14.486 7.66865 14.4845 8.12527 14.0424C8.58183 13.6004 8.58008 12.8856 8.12134 12.4457L4.01029 8.50403H28.8281C29.4754 8.50403 30 7.99856 30 7.375C30 6.75144 29.4754 6.24597 28.8281 6.24597Z" fill="black"/>
</svg>
