<svg width="50" height="55" viewBox="0 0 50 55" fill="none" xmlns="http://www.w3.org/2000/svg">
<path d="M14.8948 11.916C13.8823 11.916 13.0614 12.7369 13.0614 13.7494C13.0614 14.7618 13.8823 15.5827 14.8948 15.5827C15.9072 15.5827 16.7281 14.7618 16.7281 13.7494C16.7281 12.7369 15.9072 11.916 14.8948 11.916ZM14.8948 14.3605C14.5573 14.3605 14.2836 14.0869 14.2836 13.7494C14.2836 13.4119 14.5573 13.1383 14.8948 13.1383C15.2323 13.1383 15.5059 13.4119 15.5059 13.7494C15.5059 14.0869 15.2323 14.3605 14.8948 14.3605Z" fill="white"/>
<path d="M23.8319 5.95836C23.8319 6.97083 24.6528 7.79173 25.6653 7.79173C26.6777 7.79173 27.4986 6.97083 27.4986 5.95836C27.4986 4.9459 26.6777 4.125 25.6653 4.125C24.6528 4.125 23.8319 4.9459 23.8319 5.95836ZM26.2764 5.95836C26.2764 6.29585 26.0028 6.56949 25.6653 6.56949C25.3278 6.56949 25.0542 6.29585 25.0542 5.95836C25.0542 5.62088 25.3278 5.34724 25.6653 5.34724C26.0028 5.34724 26.2764 5.62088 26.2764 5.95836Z" fill="white"/>
<path d="M7.56065 11.3438C7.56065 10.3946 6.73975 9.625 5.72729 9.625C4.71482 9.625 3.89392 10.3946 3.89392 11.3438C3.89392 12.293 4.71482 13.0626 5.72729 13.0626C6.73975 13.0626 7.56065 12.293 7.56065 11.3438ZM5.72729 11.9167C5.3898 11.9167 5.11616 11.6602 5.11616 11.3438C5.11616 11.0274 5.3898 10.7709 5.72729 10.7709C6.06478 10.7709 6.33841 11.0274 6.33841 11.3438C6.33841 11.6602 6.06478 11.9167 5.72729 11.9167Z" fill="white"/>
<path d="M20.8521 13.75H21.9979V15.125H20.8521V13.75Z" fill="white"/>
<path d="M7.5614 8.9375H8.70725V10.3125H7.5614V8.9375Z" fill="white"/>
<path d="M16.7275 10.3125H17.8734V11.4584H16.7275V10.3125Z" fill="white"/>
<path d="M16.4992 4.11126C16.2164 3.80636 16.053 3.40283 16.041 2.97922C16.0536 2.5559 16.217 2.15237 16.4992 1.84717C16.9334 1.33657 17.1771 0.68138 17.1868 0H16.041C16.0284 0.423317 15.865 0.826849 15.5828 1.13204C15.1486 1.64264 14.9049 2.29784 14.8951 2.97922C14.9049 3.6606 15.1489 4.31579 15.5828 4.82639C15.8656 5.1313 16.029 5.53483 16.041 5.95844C16.029 6.38204 15.8656 6.78558 15.5828 7.09048C15.1489 7.60108 14.9049 8.25627 14.8951 8.93765H16.041C16.053 8.51405 16.2164 8.11051 16.4992 7.80561C16.9331 7.29501 17.1771 6.63982 17.1868 5.95844C17.1771 5.27706 16.9331 4.62186 16.4992 4.11126Z" fill="white"/>
<path d="M12.3732 2.98047H11.2274C11.2148 3.40379 11.0514 3.80732 10.7692 4.11251C10.335 4.62311 10.0913 5.27831 10.0815 5.95969C10.0913 6.64107 10.3353 7.29626 10.7692 7.80686C11.052 8.11176 11.2154 8.5153 11.2274 8.9389C11.2154 9.36251 11.052 9.76604 10.7692 10.0709C10.3353 10.5815 10.0913 11.2367 10.0815 11.9181H11.2274C11.2394 11.4945 11.4028 11.091 11.6856 10.7861C12.6015 9.7387 12.6015 8.13911 11.6856 7.09173C11.4028 6.78683 11.2394 6.38329 11.2274 5.95969C11.24 5.53637 11.4034 5.13284 11.6856 4.82764C12.1198 4.31704 12.3635 3.66185 12.3732 2.98047Z" fill="white"/>
<path d="M21.9978 2.98047H20.8519C20.8393 3.40379 20.6759 3.80732 20.3937 4.11251C19.9595 4.62311 19.7158 5.27831 19.7061 5.95969C19.7158 6.64107 19.9598 7.29626 20.3937 7.80686C20.6765 8.11176 20.8399 8.5153 20.8519 8.9389C20.8399 9.36251 20.6765 9.76604 20.3937 10.0709C19.9598 10.5815 19.7158 11.2367 19.7061 11.9181H20.8519C20.8639 11.4945 21.0273 11.091 21.3101 10.7861C22.226 9.7387 22.226 8.13911 21.3101 7.09173C21.0273 6.78683 20.8639 6.38329 20.8519 5.95969C20.8645 5.53637 21.0279 5.13284 21.3101 4.82764C21.7443 4.31704 21.988 3.66185 21.9978 2.98047Z" fill="white"/>
<path d="M29.331 12.377C28.3186 12.377 27.4977 13.1978 27.4977 14.2103C27.4977 15.2228 28.3186 16.0437 29.331 16.0437C30.3435 16.0437 31.1644 15.2228 31.1644 14.2103C31.1644 13.1978 30.3435 12.377 29.331 12.377ZM29.331 14.8214C28.9936 14.8214 28.7199 14.5478 28.7199 14.2103C28.7199 13.8728 28.9936 13.5992 29.331 13.5992C29.6685 13.5992 29.9422 13.8728 29.9422 14.2103C29.9422 14.5478 29.6685 14.8214 29.331 14.8214Z" fill="white"/>
<path d="M43.7695 11.2298C43.7695 12.2423 44.5904 13.0632 45.6029 13.0632C46.6154 13.0632 47.4363 12.2423 47.4363 11.2298C47.4363 10.2174 46.6154 9.39648 45.6029 9.39648C44.5904 9.39648 43.7695 10.2174 43.7695 11.2298ZM46.214 11.2298C46.214 11.5673 45.9404 11.841 45.6029 11.841C45.2654 11.841 44.9918 11.5673 44.9918 11.2298C44.9918 10.8924 45.2654 10.6187 45.6029 10.6187C45.9404 10.6187 46.214 10.8924 46.214 11.2298Z" fill="white"/>
<path d="M40.7897 14.209H41.9355V15.584H40.7897V14.209Z" fill="white"/>
<path d="M27.4977 9.39648H28.6435V10.7715H27.4977V9.39648Z" fill="white"/>
<path d="M38.4989 11.2305H39.6448V12.3763H38.4989V11.2305Z" fill="white"/>
<path d="M36.4354 9.61126C36.1526 9.30636 35.9892 8.90283 35.9772 8.47922C35.9897 8.0559 36.1531 7.65237 36.4354 7.34717C36.8696 6.83657 37.1132 6.18138 37.123 5.5H35.9772C35.9646 5.92332 35.8012 6.32685 35.5189 6.63204C35.0848 7.14264 34.8411 7.79784 34.8313 8.47922C34.8411 9.1606 35.085 9.81579 35.5189 10.3264C35.8017 10.6313 35.9651 11.0348 35.9772 11.4584C35.9651 11.882 35.8017 12.2856 35.5189 12.5905C35.085 13.1011 34.8411 13.7563 34.8313 14.4377H35.9772C35.9892 14.014 36.1526 13.6105 36.4354 13.3056C36.8693 12.795 37.1132 12.1398 37.123 11.4584C37.1132 10.7771 36.8693 10.1219 36.4354 9.61126Z" fill="white"/>
<path d="M32.3107 0.458984H31.1649C31.1523 0.882301 30.9889 1.28583 30.7067 1.59103C30.2725 2.10163 30.0288 2.75682 30.019 3.4382C30.0288 4.11958 30.2728 4.77478 30.7067 5.28538C30.9895 5.59028 31.1529 5.99381 31.1649 6.41742C31.1529 6.84103 30.9895 7.24456 30.7067 7.54946C30.2728 8.06006 30.0288 8.71526 30.019 9.39664H31.1649C31.1769 8.97303 31.3403 8.5695 31.6231 8.26459C32.539 7.21721 32.539 5.61763 31.6231 4.57025C31.3403 4.26534 31.1769 3.86181 31.1649 3.4382C31.1775 3.01489 31.3409 2.61135 31.6231 2.30616C32.0573 1.79556 32.301 1.14036 32.3107 0.458984Z" fill="white"/>
<path d="M41.9353 1.14648H40.7894C40.7768 1.5698 40.6134 1.97333 40.3312 2.27853C39.897 2.78913 39.6533 3.44432 39.6436 4.1257C39.6533 4.80708 39.8973 5.46228 40.3312 5.97288C40.614 6.27778 40.7774 6.68131 40.7894 7.10492C40.7774 7.52853 40.614 7.93206 40.3312 8.23696C39.8973 8.74756 39.6533 9.40276 39.6436 10.0841H40.7894C40.8014 9.66053 40.9648 9.257 41.2476 8.95209C42.1635 7.90471 42.1635 6.30513 41.2476 5.25775C40.9648 4.95284 40.8014 4.54931 40.7894 4.1257C40.802 3.70239 40.9654 3.29885 41.2476 2.99366C41.6818 2.48306 41.9255 1.82786 41.9353 1.14648Z" fill="white"/>
<path d="M49.5413 16.713L25.0017 16.6992L0.45754 16.713C0.45754 16.713 -1.39645 29.6909 2.35966 33.4424C6.11576 37.1939 5.98514 39.6598 24.9948 39.6598C44.0045 39.6598 43.8831 37.2054 47.6392 33.4585C51.3953 29.7115 49.5413 16.713 49.5413 16.713Z" fill="black"/>
<path d="M30.4533 39.1564C30.4379 39.1238 30.427 39.0892 30.4209 39.0536C30.3308 39.3788 30.3055 39.6589 30.2281 39.9263C30.1507 40.1937 30.1014 40.471 29.8579 40.7258C29.8239 40.5892 29.8378 40.4451 29.8973 40.3176C30.027 39.9269 30.0517 39.509 29.9691 39.1057C29.9114 38.7552 29.8284 38.4104 29.7439 38.0655C29.7188 37.9954 29.6858 37.9283 29.6454 37.8657L29.5835 37.8741C29.5617 37.9349 29.5485 37.9984 29.544 38.0627C29.5497 38.2502 29.5065 38.436 29.4188 38.6018C29.3568 38.7299 29.2949 38.8594 29.2428 38.9903C29.1746 39.1161 29.1271 39.252 29.1021 39.3928C29.0594 39.9341 29.107 40.4788 29.2428 41.0045C29.3329 41.3198 29.4385 41.6322 29.5089 41.9531C29.6015 42.2778 29.6429 42.615 29.6313 42.9525C29.568 43.6211 29.2217 44.1602 28.8206 44.6598C28.4758 45.0595 28.0614 45.3934 27.5974 45.6451C26.9536 46.0499 26.2006 46.2465 25.4411 46.2081C25.3829 46.1994 25.3255 46.1862 25.2694 46.1687C25.2947 46.1321 25.3003 46.1124 25.3144 46.1054C25.3429 46.0842 25.3748 46.068 25.4087 46.0575C25.9367 45.9337 26.4351 45.707 26.8754 45.3903C27.1722 45.1935 27.421 44.9322 27.6031 44.626C27.7044 44.4318 27.7621 44.2179 27.772 43.999C27.782 43.7802 27.744 43.5619 27.6608 43.3593C27.6002 43.2002 27.5341 43.044 27.4468 42.8286C27.6619 42.907 27.8567 43.0325 28.0169 43.1959C28.1772 43.3593 28.2988 43.5565 28.373 43.7731C28.3962 43.7694 28.4189 43.7627 28.4405 43.7534C28.4639 43.7406 28.4837 43.7222 28.4982 43.6999C28.7064 43.3576 28.8344 42.9726 28.8726 42.5739C28.9064 41.8701 28.76 41.1945 28.6756 40.5076C28.6034 39.9959 28.6516 39.4745 28.8163 38.9847C28.8867 38.7834 28.981 38.5906 29.0697 38.3963C29.1826 38.1746 29.2496 37.9323 29.2668 37.6841C29.2808 37.3294 29.3005 36.9803 29.3104 36.6214C29.3001 36.3005 29.3743 35.9826 29.5257 35.6995C29.5342 35.6854 29.5131 35.6544 29.5018 35.6207C28.9824 35.8599 28.7812 36.3568 28.5391 36.8058C28.508 36.8059 28.4772 36.7995 28.4486 36.7872C28.4201 36.7749 28.3944 36.7568 28.3731 36.7341C28.3518 36.7113 28.3355 36.6845 28.325 36.6552C28.3146 36.6259 28.3103 36.5947 28.3125 36.5637C28.3068 36.4216 28.2885 36.2803 28.2576 36.1415C28.0736 35.3852 28.1332 34.5901 28.4279 33.8697C28.4492 33.7947 28.4638 33.7179 28.4715 33.6403C28.3837 33.6774 28.3006 33.7246 28.2238 33.781C27.5341 34.4848 27.1738 35.3392 27.0372 36.3146C26.9795 36.2695 26.9303 36.2273 26.9218 36.1738C26.8641 35.9328 26.8297 35.6867 26.8191 35.4391C26.8289 35.0486 26.8684 34.6595 26.9373 34.2751C27.0694 33.4929 27.3371 32.7398 27.7283 32.0498C27.7538 32.0013 27.7754 31.951 27.7931 31.8992L27.7537 31.8583C27.5072 31.9747 27.2679 32.1058 27.0372 32.251C26.8098 32.4083 26.6031 32.5937 26.4221 32.8028C26.2552 33.0271 26.1033 33.2622 25.9675 33.5066C25.876 33.2954 25.9675 33.1547 26.0323 33.0167C26.1575 32.7423 26.2941 32.472 26.4306 32.2018C26.7978 31.458 26.9854 30.6384 26.9781 29.809C26.9781 29.6035 26.9866 29.398 26.9781 29.1939C26.9708 28.9973 26.9453 28.8017 26.9021 28.6098C26.8937 28.5255 26.867 28.4441 26.824 28.3712C26.781 28.2983 26.7226 28.2356 26.653 28.1875C26.5946 28.245 26.5409 28.3071 26.4925 28.3733C26.4572 28.4445 26.4275 28.5184 26.4038 28.5943C26.1969 29.0996 25.8408 29.5007 25.4735 29.8864C25.3074 30.0595 25.13 30.2214 24.9653 30.3959C24.9372 30.4255 24.9485 30.4902 24.9414 30.5367C24.9893 30.5367 25.0456 30.5592 25.0822 30.5367C25.2328 30.4593 25.3778 30.372 25.5213 30.2833C25.678 30.1734 25.8623 30.1096 26.0534 30.0989C25.9985 30.2059 25.9577 30.2903 25.9126 30.372C25.7038 30.7455 25.5511 31.1476 25.4594 31.5656C25.3918 31.8949 25.3186 32.2257 25.2483 32.5508C25.1188 33.1434 24.8893 33.6769 24.4417 34.0991C24.2064 34.3158 23.9277 34.4799 23.624 34.5805C23.9561 33.9781 23.9547 33.9724 24.0279 33.249C24.0458 33.082 24.075 32.9165 24.1152 32.7535C24.1448 32.6268 24.2109 32.5086 24.2377 32.3819C24.2728 32.2173 24.2742 32.0455 24.3108 31.8823C24.3643 31.6416 24.3939 31.391 24.5529 31.1785C24.5726 31.1518 24.5614 31.1011 24.5684 31.0209C24.5063 31.0565 24.4474 31.0974 24.3925 31.1433C24.2391 31.3052 24.0927 31.4727 23.9421 31.6359C23.7233 31.8585 23.5548 32.1253 23.448 32.4185C23.3298 32.7704 23.144 33.1026 23.175 33.4925C23.175 33.5333 23.1088 33.5783 23.0736 33.6206C23.037 33.5882 22.985 33.56 22.9681 33.5192C22.9371 33.4376 22.9329 33.3461 22.9061 33.2616C22.8315 33.0252 22.7583 32.7887 22.6711 32.5579C22.6462 32.492 22.6085 32.4318 22.5601 32.3805C22.5118 32.3293 22.4539 32.2882 22.3896 32.2595C22.3727 32.3059 22.3516 32.3341 22.3558 32.3538C22.4431 32.6733 22.3431 32.9661 22.239 33.2602C21.9508 34.0823 21.6027 34.882 21.1974 35.653C20.9973 36.0207 20.8914 36.4322 20.8891 36.8508C20.8891 36.886 20.8554 36.9212 20.8314 36.9719C20.7019 36.886 20.7315 36.7706 20.7315 36.6721C20.738 36.2789 20.6245 35.893 20.4064 35.5658C20.277 35.3622 20.1143 35.1818 19.925 35.0323C19.925 35.1618 19.925 35.2251 19.925 35.2871C19.9475 35.5686 19.9911 35.8501 19.9925 36.1316C19.9925 36.5764 19.9475 37.0212 19.9559 37.4645C19.9663 37.7125 20.0108 37.9578 20.0883 38.1936C20.143 38.3903 20.239 38.5731 20.3698 38.7299C20.5963 38.9681 20.8405 39.1887 21.1003 39.39C21.5873 39.7855 20.7456 39.5463 20.9004 40.1501C20.9919 40.509 22.2193 41.6111 22.2967 41.9799C22.3304 42.1446 22.3755 42.3078 22.4065 42.4739C22.5233 43.0848 22.6303 43.6971 22.7527 44.3037C22.8259 44.6711 22.9202 45.0413 23.1961 45.3157C23.3891 45.4985 23.5951 45.6669 23.8126 45.8196C23.9533 45.9266 24.1194 46.0082 24.3179 46.1293C23.9953 46.1629 23.6692 46.1332 23.3579 46.042C22.6837 45.8675 22.1939 45.4283 21.7266 44.9357C21.3044 44.4895 21.1017 43.9504 20.9637 43.379C20.9637 43.3621 20.9834 43.3382 21.006 43.2931C21.2541 43.6811 21.5958 44.0006 21.9997 44.2221C22.1151 44.0813 22.0123 44.0236 21.9631 43.9406C21.8125 43.7027 21.5887 43.5028 21.5408 43.2129C21.4814 42.9166 21.4387 42.6173 21.4127 42.3163C21.3722 41.5695 21.1972 40.8361 20.8962 40.1515C20.6888 39.7262 20.3977 39.347 20.0404 39.0367C19.8191 38.8556 19.5879 38.6869 19.3479 38.5314C19.3267 38.7505 19.3267 38.9711 19.3479 39.1902C19.4886 39.8447 19.659 40.4879 20.0517 41.0495C20.0964 41.1039 20.13 41.1666 20.1505 41.234C20.1711 41.3013 20.1781 41.3721 20.1713 41.4422C20.1042 41.406 20.0398 41.3651 19.9785 41.3198C19.7913 41.1551 19.6083 40.9862 19.4267 40.8159C19.3465 40.7399 19.2775 40.6498 19.1199 40.6751C19.3356 41.3604 19.4276 42.0787 19.3915 42.7963C19.391 42.9824 19.4118 43.168 19.4535 43.3494C19.5337 43.7238 19.6083 44.1081 19.8673 44.4065C20.0798 44.6486 20.3064 44.878 20.5288 45.1102C20.5482 45.1279 20.5665 45.1467 20.5837 45.1665L20.5978 45.1792C20.93 45.5001 21.0651 45.4452 21.8223 45.8337C22.6317 46.2461 24.4812 46.7683 25.8113 46.5881C27.0654 46.4178 27.9676 45.8985 28.9529 45.2327C29.0089 45.1894 29.0676 45.1499 29.1288 45.1145C29.4398 44.9494 29.7202 44.7323 29.9579 44.4726C30.152 44.2286 30.3288 43.9713 30.4871 43.7027C30.5687 43.562 30.5687 43.3945 30.6278 43.2467C30.8425 42.7064 30.9781 42.138 31.0304 41.559C31.0933 40.7176 30.8916 39.8775 30.4533 39.1564ZM23.189 39.093C23.1764 39.1212 23.1468 39.1409 23.0919 39.2C23.0764 39.0283 23.0722 38.9002 23.0511 38.7778C22.9918 38.4265 22.8542 38.0931 22.6486 37.8023C22.4358 37.505 22.2859 37.1673 22.208 36.81C22.101 36.3104 22.2502 35.8768 22.6077 35.4504C22.6204 35.5334 22.6373 35.5686 22.626 35.5911C22.4304 35.9768 22.5852 36.3089 22.7921 36.6327C22.8723 36.7594 22.9681 36.8776 23.0525 37.0029C23.5114 37.6728 23.5381 38.371 23.189 39.093ZM25.0906 44.6556C25.1188 44.6134 25.1342 44.5599 25.1638 44.5514C25.4453 44.4628 25.5044 44.2136 25.5861 43.9772C25.6677 43.7407 25.6044 43.4705 25.5635 43.2171C25.4735 42.6541 25.5072 42.1009 25.8845 41.6266C25.9526 41.5343 26.0337 41.4523 26.1252 41.3831C26.3124 41.2508 26.5094 41.1297 26.7079 41.0115C26.7748 40.9848 26.8448 40.9663 26.9162 40.9566C26.9162 41.034 26.9162 41.0594 26.9077 41.0678C26.6122 41.3043 26.5319 41.659 26.4095 41.9869C26.3725 42.1144 26.3572 42.2471 26.3644 42.3796C26.3644 42.6611 26.387 42.9426 26.3644 43.2326C26.3124 43.9912 25.9126 44.5134 25.1877 44.6838C25.1624 44.6936 25.1357 44.6753 25.0906 44.6556Z" fill="#FF8F00"/>
<path d="M35.831 49.0086C35.8173 48.9523 35.7836 48.9028 35.7363 48.8694C35.6889 48.836 35.631 48.821 35.5734 48.827C35.3872 48.8248 35.2019 48.8002 35.0216 48.7538C34.5318 48.6131 33.9941 48.6131 33.5733 48.264C33.55 48.2511 33.5248 48.2421 33.4987 48.2373C33.2172 48.1401 32.9216 48.0529 32.6401 47.9445C32.1028 47.732 31.5473 47.5686 30.9806 47.4561C30.6817 47.415 30.3875 47.3448 30.1023 47.2464C29.7237 47.0972 29.3436 47.1338 28.9763 47.1915C28.3739 47.283 27.7813 47.4364 27.1831 47.5616C27.162 47.5616 27.1366 47.5504 27.062 47.5307C27.1505 47.4597 27.2447 47.3962 27.3435 47.3407C27.877 47.1028 28.4105 46.8621 28.9524 46.6369C29.4717 46.4258 30.001 46.2414 30.5246 46.0401C30.7681 45.9561 31.006 45.8564 31.2368 45.7417C31.9265 45.3701 32.6119 44.9915 33.2875 44.5988C33.4585 44.4876 33.6113 44.3509 33.7408 44.1934C33.7841 44.1422 33.8112 44.0792 33.8185 44.0125C33.8258 43.9458 33.8129 43.8784 33.7816 43.819C33.6965 43.6048 33.6241 43.3858 33.5648 43.1631C33.486 42.8901 33.3579 42.7957 33.0961 42.8971C32.6823 43.059 32.2812 43.2504 31.8758 43.432C31.8331 43.4464 31.7962 43.474 31.7702 43.5108C31.6703 43.7486 31.4296 43.8021 31.2466 43.933C31.0932 44.0371 30.9573 44.1649 30.8441 44.3117C30.6359 44.6067 30.3844 44.8686 30.0981 45.0886L30.0812 45.1041C29.5714 45.5397 29.0219 45.9266 28.44 46.2597C27.5054 46.8114 26.2119 47.0915 25.0943 47.1999C23.9767 47.3083 23.1393 46.8931 21.9175 46.4441C21.4421 46.2742 20.9976 46.0279 20.6015 45.715C20.213 45.4461 19.8245 45.1801 19.4501 44.8944C19.187 44.6675 18.8755 44.5038 18.5394 44.4158C18.1324 44.3203 17.7365 44.1821 17.3585 44.0034C17.0629 43.8711 16.7434 43.7895 16.4521 43.6923C16.2973 43.9091 16.1495 44.0865 16.0369 44.2821C15.9621 44.3923 15.9301 44.5259 15.9468 44.6579C16.0678 45.0379 16.1495 45.4686 16.6505 45.5545C16.6924 45.5694 16.7325 45.5888 16.7702 45.6122C17.4283 45.9271 18.1201 46.1661 18.8322 46.3244C19.0842 46.3723 19.3375 46.4187 19.5838 46.4891C20.0061 46.6073 20.4171 46.7439 20.8337 46.8734C20.9224 46.9015 21.0097 46.9325 21.1532 46.9803C21.0856 47.0232 21.0145 47.0604 20.9407 47.0915C20.4462 47.2407 19.9512 47.3862 19.4557 47.5279C19.4058 47.5469 19.351 47.5494 19.2995 47.5349C19.1348 47.4547 19.0053 47.5349 18.8773 47.6123C18.7192 47.7271 18.5542 47.8319 18.3832 47.9262C17.8948 48.143 17.3979 48.3485 16.9039 48.5357C16.7006 48.5995 16.4911 48.6415 16.279 48.6609C15.9974 48.7017 15.7159 48.7102 15.4344 48.7651C15.222 48.8192 15.0133 48.8869 14.8095 48.9678C14.6082 49.0353 14.4027 49.0959 14.2071 49.1761C14.141 49.1982 14.0844 49.2422 14.0468 49.3008C14.0092 49.3594 13.9927 49.4291 14.0002 49.4984C14.0042 49.6737 14.0617 49.8436 14.1648 49.9854C14.6589 49.7757 15.1149 49.49 15.654 49.4224C16.1931 49.3548 16.7054 49.2535 17.2417 49.2155C17.2417 49.2563 17.2417 49.2774 17.2319 49.2887C17.2152 49.3091 17.1963 49.3275 17.1755 49.3436C16.9968 49.4843 16.773 49.4688 16.5661 49.504C16.0569 49.5817 15.5625 49.7359 15.0994 49.9615C14.9179 50.053 14.7433 50.1599 14.566 50.2599C14.3886 50.3598 14.3422 50.471 14.4562 50.654C14.6406 50.951 14.8475 51.2311 15.2219 51.3127C15.2529 51.3127 15.2768 51.3507 15.3007 51.369C15.281 51.4591 15.2585 51.5365 15.2472 51.6153C15.2036 51.9137 15.3106 52.0165 15.6047 51.9545C15.761 51.9208 15.9158 51.8743 16.0735 51.8546C16.7117 51.7869 17.3298 51.5911 17.8906 51.2789C18.6234 50.841 19.3941 50.4698 20.1933 50.1698C20.6816 49.9793 21.1471 49.7347 21.5811 49.4407C21.636 49.4055 21.6979 49.3802 21.7711 49.3436C21.7895 49.3927 21.7919 49.4463 21.778 49.4969C21.7641 49.5474 21.7346 49.5923 21.6937 49.6251C21.3827 49.953 21.0857 50.2965 20.7507 50.5991C20.4481 50.8736 20.099 51.0931 19.7795 51.3493C19.5489 51.5297 19.3289 51.7233 19.1208 51.9292C18.98 52.07 18.98 52.1755 19.1306 52.3205C19.2225 52.4032 19.323 52.4759 19.4304 52.5373C19.8358 52.8033 20.3087 52.9595 20.617 53.3818C20.7394 53.5479 20.9168 53.5225 21.0392 53.3325C21.2433 53.0186 21.5431 52.8103 21.8077 52.5612C22.0639 52.3445 22.2956 52.1005 22.4988 51.8335C22.8558 51.3023 23.2495 50.7967 23.6769 50.3204C23.8937 50.0783 24.109 49.8334 24.3244 49.5913C24.0696 49.3014 23.8219 49.0353 23.5897 48.7552C23.3574 48.4751 23.1393 48.1781 22.9155 47.8896L22.9633 47.8403C23.0182 47.8868 23.0731 47.9318 23.1266 47.9811C23.4447 48.2767 23.76 48.5751 24.0809 48.8678C24.1513 48.9312 24.247 48.9664 24.3188 49.0297C24.6003 49.276 24.8621 49.5392 25.1506 49.7729C25.5374 50.0872 25.8953 50.4353 26.2203 50.813C26.4582 51.0945 26.7059 51.3592 26.9551 51.6252C27.4676 52.1819 28.0312 52.6895 28.6385 53.1411C28.9974 53.4029 29.3859 53.6267 29.6885 53.9617C29.7343 54.0087 29.7905 54.0444 29.8526 54.0659C29.9147 54.0874 29.9809 54.0941 30.046 54.0855C30.234 54.0789 30.4175 54.0264 30.5806 53.9327C30.7438 53.839 30.8815 53.7069 30.982 53.5479C31.104 53.3421 31.2054 53.1247 31.2846 52.899C31.3447 52.7538 31.3562 52.5932 31.3174 52.4409C31.2786 52.2887 31.1915 52.1531 31.0693 52.0545C30.7427 51.773 30.4274 51.4633 30.0925 51.1846C29.4689 50.6681 28.8341 50.1656 28.2064 49.6546C28.1346 49.5969 28.0656 49.5266 28.0065 49.4618L28.0361 49.4154C28.1515 49.4534 28.2697 49.4857 28.3823 49.5322C28.9058 49.7519 29.4421 49.94 29.9883 50.0952C30.4176 50.2092 30.8511 50.3176 31.2677 50.4668C31.9546 50.7131 32.633 50.9834 33.3101 51.255C33.7492 51.4509 34.2167 51.5754 34.6951 51.6238C34.8175 51.6322 34.9442 51.6449 35.0273 51.4929C34.9899 51.4669 34.9509 51.4433 34.9104 51.4225C34.1855 51.1072 33.4593 50.799 32.7386 50.4766C32.5237 50.3987 32.3306 50.2703 32.1756 50.1022C32.3023 50.0065 32.3952 50.0797 32.4895 50.1163C32.8146 50.2388 33.1327 50.3809 33.4621 50.4823C34.0392 50.661 34.636 50.775 35.1863 51.0368C35.2732 51.0698 35.3627 51.0957 35.4537 51.1143C35.6789 50.8665 35.6564 50.7398 35.382 50.6216C35.3172 50.5935 35.2412 50.5709 35.1849 50.54C35.1286 50.509 35.061 50.4696 34.9991 50.4344C35.0722 50.4084 35.1511 50.403 35.2271 50.4189C35.3366 50.4382 35.4494 50.421 35.5482 50.3702C35.6471 50.3194 35.7266 50.2376 35.7747 50.1374C36.0055 49.7687 35.9464 49.3914 35.831 49.0086ZM31.1509 45.1562C31.5422 44.93 31.9349 44.7053 32.329 44.482C32.3715 44.4465 32.4257 44.4283 32.481 44.4309C32.5362 44.4336 32.5885 44.4568 32.6274 44.496C32.5908 44.5523 32.5655 44.6368 32.5106 44.672C32.103 44.9577 31.6499 45.1724 31.1706 45.3068C31.1495 45.3068 31.1214 45.2941 31.0496 45.2758C31.0988 45.2181 31.1185 45.1759 31.1509 45.1562ZM17.6949 49.2085C17.5767 49.169 17.5542 49.0508 17.671 48.9621C17.7617 48.8878 17.8675 48.8342 17.981 48.805C18.0945 48.7759 18.2131 48.7718 18.3283 48.7932C18.2523 49.0719 17.9103 49.2802 17.6949 49.2085ZM21.1786 52.4373C21.1631 52.45 21.118 52.4247 21.0871 52.4176C21.1054 52.3599 21.1237 52.3022 21.1504 52.222C21.2419 52.3205 21.2447 52.3838 21.1786 52.4373ZM23.1491 50.3401C23.1195 50.3964 23.1125 50.4358 23.0886 50.4555C22.8444 50.6766 22.6339 50.9322 22.4636 51.2142C22.2286 51.5478 21.9006 51.7772 21.5699 52.0038C21.553 52.0165 21.5192 52.0038 21.4924 52.0038C21.4597 51.9603 21.4449 51.9059 21.4509 51.8517C21.4569 51.7976 21.4833 51.7478 21.5248 51.7125C21.6484 51.5734 21.7815 51.4431 21.9231 51.3226C22.1547 51.1574 22.3622 50.9608 22.5396 50.7384C22.6344 50.6204 22.741 50.5124 22.8577 50.4161C22.8914 50.3734 22.938 50.3428 22.9906 50.3291C23.0433 50.3154 23.0989 50.3193 23.1491 50.3401ZM28.6005 50.4809C28.6589 50.4957 28.7148 50.519 28.7666 50.5498C29.0903 50.8116 29.4182 51.0692 29.7279 51.3465C30.0376 51.6238 30.343 51.9334 30.6428 52.2346C30.7554 52.3458 30.8666 52.4697 30.799 52.6668C30.7028 52.7218 30.5896 52.7394 30.4813 52.716C30.3729 52.6926 30.277 52.6299 30.2121 52.5401C30.0635 52.3649 29.9403 52.1697 29.8461 51.9602C29.7438 51.7141 29.5758 51.5008 29.3605 51.3437C29.0655 51.1066 28.7987 50.8365 28.5653 50.5386L28.6005 50.4809ZM31.6365 49.9924C31.6149 50.0165 31.5876 50.0349 31.5572 50.046C31.5267 50.057 31.494 50.0604 31.462 50.0558C31.2709 49.997 31.083 49.9284 30.899 49.8503C30.8511 49.8306 30.8173 49.7729 30.7779 49.7335C30.7864 49.7152 30.7962 49.6969 30.8047 49.68C30.8452 49.6703 30.8871 49.6674 30.9285 49.6715C31.1242 49.7236 31.317 49.7813 31.5112 49.8376C31.5943 49.8545 31.6773 49.8883 31.6379 49.9868L31.6365 49.9924Z" fill="black"/>
<path d="M33.1104 36.4238C33.1164 36.503 33.1059 36.5825 33.0795 36.6574C33.0531 36.7323 33.0114 36.8009 32.957 36.8587C32.4656 37.3986 31.8616 37.8238 31.1877 38.1044C31.1131 38.1367 31.0202 38.1705 30.9766 38.0804C30.9698 38.049 30.9699 38.0165 30.9769 37.9852C30.984 37.9538 30.9978 37.9244 31.0174 37.8989C31.1581 37.7201 31.313 37.547 31.4706 37.3809C31.7282 37.1121 31.9858 36.8446 32.2574 36.5885C32.4087 36.4408 32.5774 36.3123 32.7599 36.2056C32.9936 36.0761 33.0963 36.1535 33.1104 36.428V36.4238Z" fill="#FF8F00"/>
<path d="M17.0327 36.2109C17.0986 36.269 17.1589 36.3331 17.2129 36.4024C17.3269 36.5811 17.4184 36.7768 17.5409 36.9499C17.7041 37.1793 17.8913 37.3933 18.063 37.6185C18.1884 37.7779 18.3054 37.9437 18.4135 38.1153C18.4247 38.1466 18.4277 38.1802 18.4223 38.2129C18.4168 38.2457 18.4032 38.2765 18.3826 38.3025C18.3488 38.3335 18.2517 38.318 18.1954 38.2941C18.1252 38.2551 18.06 38.2079 18.0011 38.1533C17.7562 37.9633 17.4986 37.7874 17.272 37.5776C17.086 37.4014 16.919 37.2061 16.7738 36.9949C16.7101 36.8877 16.6838 36.7623 16.6991 36.6385C16.7144 36.5147 16.7703 36.3994 16.8582 36.3109C16.9137 36.273 16.972 36.2396 17.0327 36.2109Z" fill="#FF8F00"/>
<path d="M18.9394 43.2096C18.7142 42.9844 18.4256 42.8549 18.2666 42.572C18.2015 42.4663 18.1286 42.3656 18.0484 42.2708C17.9958 42.2143 17.9644 42.1414 17.9595 42.0644C17.9547 41.9874 17.9766 41.9111 18.0217 41.8485C18.1174 41.6993 18.2103 41.5473 18.3144 41.4037C18.4186 41.2602 18.4791 41.263 18.603 41.3601C18.6957 41.4264 18.7703 41.515 18.8197 41.6177C18.8904 41.8081 18.9454 42.0039 18.9844 42.2032C19.026 42.5388 19.0108 42.879 18.9394 43.2096Z" fill="black"/>
<path d="M19.3882 34.7005C19.3168 34.6875 19.2494 34.658 19.1913 34.6146C19.1332 34.5711 19.0859 34.5148 19.0532 34.45C18.814 34.077 18.5873 33.697 18.334 33.3338C18.1468 33.065 18.2355 32.8046 18.3762 32.5935C18.486 32.4302 18.645 32.4386 18.7295 32.6146C18.8627 32.8961 18.9852 33.1813 19.0969 33.4703C19.2067 33.7603 19.2939 34.0587 19.3953 34.3529C19.4319 34.4612 19.4896 34.5668 19.3882 34.7005Z" fill="#FF8F00"/>
<path d="M30.8775 33.0614C30.8523 33.1215 30.8176 33.1771 30.7748 33.2261C30.3638 33.6146 29.964 34.0185 29.4714 34.3071C29.4438 34.3243 29.4128 34.3354 29.3805 34.3398C29.3482 34.3442 29.3154 34.3416 29.2842 34.3324C29.1969 34.2874 29.2237 34.1917 29.2617 34.1213C29.2912 34.0676 29.3256 34.0167 29.3644 33.9693C29.5967 33.6695 29.8374 33.3739 30.0682 33.0685C30.1753 32.9275 30.3281 32.828 30.5003 32.787C30.5433 32.7787 30.5874 32.7794 30.6301 32.7889C30.6728 32.7985 30.7131 32.8167 30.7484 32.8424C30.7838 32.8681 30.8135 32.9008 30.8357 32.9385C30.8579 32.9762 30.8721 33.018 30.8775 33.0614Z" fill="#FF8F00"/>
<path d="M31.3673 41.6133C31.435 41.643 31.5008 41.6769 31.5643 41.7146C31.7051 41.8132 31.7487 41.8835 31.6783 42.0482C31.5742 42.2903 31.4447 42.5225 31.3222 42.752C31.3036 42.7929 31.2726 42.8268 31.2336 42.8491C31.1823 42.8734 31.1245 42.8804 31.0689 42.8688C31.045 42.8688 31.0309 42.7787 31.0365 42.728C31.0513 42.668 31.0706 42.6092 31.0942 42.5521C31.1829 42.2622 31.2702 41.9511 31.3673 41.6133Z" fill="black"/>
<line x1="9.97199" y1="34.2268" x2="6.11625" y2="50.7838" stroke="black" stroke-width="2"/>
<line y1="-1" x2="17" y2="-1" transform="matrix(0.226808 0.97394 0.97394 -0.226808 40.9982 34)" stroke="black" stroke-width="2"/>
</svg>
