<svg width="22" height="21" viewBox="0 0 22 21" fill="none" xmlns="http://www.w3.org/2000/svg">
<path d="M13.76 0H7.32012C1.44337 0 0.0502319 1.38923 0.0502319 7.24948V13.6713C0.0502319 19.5316 1.44337 20.9208 7.32012 20.9208H13.76C19.6368 20.9208 21.0299 19.5316 21.0299 13.6713V7.24948C21.0299 1.38923 19.623 0 13.76 0ZM16.9869 14.9239H15.4639C14.887 14.9239 14.7093 14.4676 13.6715 13.419C12.7701 12.5475 12.3708 12.4318 12.1486 12.4318C11.8345 12.4318 11.7454 12.5201 11.7454 12.9496V14.3218C11.7454 14.6899 11.6293 14.9108 10.6525 14.9108C9.03712 14.9108 7.24472 13.9367 5.98795 12.1219C4.09263 9.46244 3.57405 7.47045 3.57405 7.05859C3.57405 6.83697 3.66256 6.62972 4.08935 6.62972H5.61557C6.00172 6.62972 6.14857 6.80689 6.2987 7.21876C7.05329 9.39118 8.31006 11.2943 8.82864 11.2943C9.02007 11.2943 9.10858 11.206 9.10858 10.719V8.47527C9.05023 7.44038 8.50412 7.35147 8.50412 6.98406C8.50412 6.80689 8.65097 6.62972 8.88633 6.62972H11.2865C11.611 6.62972 11.7303 6.80689 11.7303 7.18803V10.2149C11.7303 10.5418 11.8771 10.6575 11.9657 10.6575C12.1571 10.6575 12.321 10.5418 12.6757 10.1875C13.7718 8.96167 14.5572 7.07166 14.5572 7.07166C14.6595 6.85004 14.8372 6.6428 15.2233 6.6428H16.7495C17.2071 6.6428 17.3094 6.8775 17.2071 7.20438C17.0157 8.08956 15.1479 10.7183 15.1479 10.7183C14.9873 10.9837 14.9257 11.0994 15.1479 11.3956C15.3118 11.6172 15.8448 12.0768 16.1995 12.4887C16.8518 13.2274 17.3533 13.8472 17.4871 14.276C17.6372 14.7016 17.4156 14.9233 16.9849 14.9233L16.9869 14.9239Z" fill="white"/>
</svg>
