<svg width="59" height="57" viewBox="0 0 59 57" fill="none" xmlns="http://www.w3.org/2000/svg">
<path d="M55.8396 19.9304C55.0611 17.5263 55.3929 13.9175 53.3694 11.131C51.33 8.32261 47.783 7.52438 45.7801 6.06352C43.7983 4.61807 41.9545 1.47261 38.6209 0.387776C35.3813 -0.666493 32.0686 0.764137 29.5 0.764137C26.9318 0.764137 23.6192 -0.666838 20.3791 0.387661C17.046 1.47227 15.2008 4.61841 13.2203 6.06318C11.2196 7.52231 7.66988 8.32272 5.63081 11.1307C3.60903 13.9148 3.93756 17.5319 3.16042 19.9303C2.42084 22.2129 0 24.9525 0 28.5002C0 32.0502 2.41808 34.7792 3.16042 37.0701C3.93894 39.4742 3.60707 43.083 5.63058 45.8695C7.66988 48.678 11.2168 49.4761 13.2199 50.9371C15.2014 52.3823 17.0455 55.528 20.3791 56.6127C23.6165 57.6663 26.9344 56.2364 29.5 56.2364C32.062 56.2364 35.3877 57.6648 38.6209 56.6128C41.9541 55.5282 43.7982 52.3828 45.7797 50.9373C47.7804 49.4782 51.3301 48.6778 53.3692 45.8698C55.3911 43.0856 55.0623 39.4688 55.8396 37.0702C56.5792 34.7875 59 32.0479 59 28.5002C59 24.9505 56.5825 22.2223 55.8396 19.9304ZM51.4536 35.6567C50.5462 38.4579 50.7839 41.5928 49.6362 43.1734C48.473 44.775 45.4171 45.5066 43.0591 47.2267C40.7268 48.9276 39.0922 51.624 37.1911 52.2426C35.3925 52.828 32.4614 51.6394 29.5001 51.6394C26.5172 51.6394 23.6162 52.8305 21.809 52.2426C19.9081 51.624 18.2758 48.9294 15.9411 47.2266C13.597 45.5169 10.5237 44.7703 9.36383 43.1731C8.21978 41.5978 8.44852 38.4412 7.54658 35.6568C6.66251 32.9288 4.60938 30.5666 4.60938 28.5002C4.60938 26.4318 6.66066 24.0778 7.54635 21.3438C8.45382 18.5427 8.2161 15.4076 9.36383 13.8271C10.5263 12.2265 13.5845 11.4925 15.9411 9.77381C18.2807 8.06737 19.905 5.37746 21.8088 4.75793C23.6059 4.17322 26.5465 5.36114 29.4999 5.36114C32.4883 5.36114 35.3819 4.16919 37.191 4.75793C39.0916 5.37642 40.7253 8.07197 43.0591 9.77392C45.4028 11.4836 48.4763 12.2302 49.6362 13.8272C50.7804 15.4029 50.5504 18.5563 51.4534 21.3435V21.3436C52.3375 24.0717 54.3906 26.4339 54.3906 28.5002C54.3906 30.5687 52.3393 32.9227 51.4536 35.6567ZM40.118 21.123C41.0181 22.0206 41.0181 23.4759 40.118 24.3734L28.5824 35.8775C27.6823 36.7751 26.223 36.775 25.323 35.8775L18.8821 29.4542C17.982 28.5566 17.9819 27.1013 18.882 26.2038C19.7821 25.3063 21.2415 25.3062 22.1412 26.2038L26.9526 31.0019L36.8585 21.1231C37.7586 20.2255 39.2179 20.2255 40.118 21.123Z" fill="#002614"/>
</svg>
