<svg width="21" height="21" viewBox="0 0 21 21" fill="none" xmlns="http://www.w3.org/2000/svg">
<path d="M3.85115 0C1.72907 0 0.0203857 1.70389 0.0203857 3.82V17.1008C0.0203857 19.2169 1.72907 20.9208 3.85115 20.9208H11.0695V12.7421H8.9007V9.79746H11.0695V7.28174C11.0695 5.30525 12.3509 3.4905 15.3028 3.4905C16.4979 3.4905 17.3817 3.60492 17.3817 3.60492L17.3122 6.3547C17.3122 6.3547 16.4109 6.34621 15.4273 6.34621C14.3628 6.34621 14.1922 6.83529 14.1922 7.64723V9.79748H17.3968L17.2572 12.7421H14.1922V20.9208H17.1693C19.2914 20.9208 21.0001 19.2169 21.0001 17.1008V3.82003C21.0001 1.70391 19.2914 2.09208e-05 17.1693 2.09208e-05H3.85113L3.85115 0Z" fill="white"/>
</svg>
