<svg width="22" height="21" viewBox="0 0 22 21" fill="none" xmlns="http://www.w3.org/2000/svg">
<path d="M10.5269 6.99851C8.59343 6.99851 7.01557 8.57195 7.01557 10.5C7.01557 12.4281 8.59343 14.0015 10.5269 14.0015C12.4604 14.0015 14.0383 12.4281 14.0383 10.5C14.0383 8.57195 12.4604 6.99851 10.5269 6.99851ZM21.0583 10.5C21.0583 9.05002 21.0715 7.61317 20.9898 6.16582C20.9082 4.48469 20.5236 2.99268 19.2908 1.76335C18.0554 0.53139 16.5618 0.150507 14.8759 0.0690774C13.4219 -0.0123526 11.981 0.000781319 10.5295 0.000781319C9.07548 0.000781319 7.6346 -0.0123526 6.18317 0.0690774C4.4973 0.150507 3.0011 0.534016 1.76831 1.76335C0.532885 2.9953 0.150931 4.48469 0.0692718 6.16582C-0.0123874 7.6158 0.000783517 9.05265 0.000783517 10.5C0.000783517 11.9474 -0.0123874 13.3868 0.0692718 14.8342C0.150931 16.5153 0.535519 18.0073 1.76831 19.2367C3.00373 20.4686 4.4973 20.8495 6.18317 20.9309C7.63723 21.0124 9.07812 20.9992 10.5295 20.9992C11.9836 20.9992 13.4245 21.0124 14.8759 20.9309C16.5618 20.8495 18.058 20.466 19.2908 19.2367C20.5262 18.0047 20.9082 16.5153 20.9898 14.8342C21.0741 13.3868 21.0583 11.95 21.0583 10.5ZM10.5269 15.8875C7.53713 15.8875 5.12424 13.4814 5.12424 10.5C5.12424 7.51861 7.53713 5.11248 10.5269 5.11248C13.5167 5.11248 15.9296 7.51861 15.9296 10.5C15.9296 13.4814 13.5167 15.8875 10.5269 15.8875ZM16.1509 6.15006C15.4528 6.15006 14.8891 5.58793 14.8891 4.89184C14.8891 4.19574 15.4528 3.63361 16.1509 3.63361C16.8489 3.63361 17.4126 4.19574 17.4126 4.89184C17.4128 5.05713 17.3803 5.22083 17.317 5.37358C17.2537 5.52633 17.1607 5.66512 17.0435 5.782C16.9263 5.89888 16.7871 5.99155 16.634 6.05471C16.4808 6.11787 16.3166 6.15027 16.1509 6.15006Z" fill="white"/>
</svg>
