<svg width="50" height="55" viewBox="0 0 50 55" fill="none" xmlns="http://www.w3.org/2000/svg">
<path d="M14.8947 11.9167C13.8822 11.9167 13.0613 12.7376 13.0613 13.7501C13.0613 14.7626 13.8822 15.5835 14.8947 15.5835C15.9072 15.5835 16.7281 14.7626 16.7281 13.7501C16.7281 12.7376 15.9072 11.9167 14.8947 11.9167ZM14.8947 14.3612C14.5572 14.3612 14.2836 14.0876 14.2836 13.7501C14.2836 13.4126 14.5572 13.139 14.8947 13.139C15.2322 13.139 15.5058 13.4126 15.5058 13.7501C15.5058 14.0876 15.2322 14.3612 14.8947 14.3612Z" fill="#B0B0B0"/>
<path d="M23.832 5.95836C23.832 6.97083 24.6529 7.79173 25.6653 7.79173C26.6778 7.79173 27.4987 6.97083 27.4987 5.95836C27.4987 4.9459 26.6778 4.125 25.6653 4.125C24.6529 4.125 23.832 4.9459 23.832 5.95836ZM26.2765 5.95836C26.2765 6.29585 26.0028 6.56949 25.6653 6.56949C25.3278 6.56949 25.0542 6.29585 25.0542 5.95836C25.0542 5.62088 25.3278 5.34724 25.6653 5.34724C26.0028 5.34724 26.2765 5.62088 26.2765 5.95836Z" fill="#B0B0B0"/>
<path d="M7.56065 11.344C7.56065 10.3948 6.73975 9.62524 5.72729 9.62524C4.71482 9.62524 3.89392 10.3948 3.89392 11.344C3.89392 12.2932 4.71482 13.0628 5.72729 13.0628C6.73975 13.0628 7.56065 12.2932 7.56065 11.344ZM5.72729 11.917C5.3898 11.917 5.11616 11.6604 5.11616 11.344C5.11616 11.0276 5.3898 10.7711 5.72729 10.7711C6.06478 10.7711 6.33841 11.0276 6.33841 11.344C6.33841 11.6604 6.06478 11.917 5.72729 11.917Z" fill="#B0B0B0"/>
<path d="M20.8521 13.7505H21.998V15.1255H20.8521V13.7505Z" fill="#B0B0B0"/>
<path d="M7.56146 8.9375H8.70732V10.3125H7.56146V8.9375Z" fill="#B0B0B0"/>
<path d="M16.7275 10.3127H17.8734V11.4586H16.7275V10.3127Z" fill="#B0B0B0"/>
<path d="M16.4992 4.11126C16.2163 3.80636 16.053 3.40283 16.0409 2.97922C16.0535 2.5559 16.2169 2.15237 16.4992 1.84717C16.9333 1.33657 17.177 0.68138 17.1868 0H16.0409C16.0283 0.423317 15.865 0.826849 15.5827 1.13204C15.1485 1.64264 14.9049 2.29784 14.8951 2.97922C14.9049 3.6606 15.1488 4.31579 15.5827 4.82639C15.8655 5.1313 16.0289 5.53483 16.0409 5.95844C16.0289 6.38204 15.8655 6.78558 15.5827 7.09048C15.1488 7.60108 14.9049 8.25627 14.8951 8.93765H16.0409C16.053 8.51405 16.2163 8.11051 16.4992 7.80561C16.9331 7.29501 17.177 6.63982 17.1868 5.95844C17.177 5.27706 16.9331 4.62186 16.4992 4.11126Z" fill="#B0B0B0"/>
<path d="M12.3732 2.97949H11.2273C11.2147 3.40281 11.0514 3.80634 10.7691 4.11154C10.3349 4.62214 10.0913 5.27733 10.0815 5.95871C10.0913 6.64009 10.3352 7.29528 10.7691 7.80588C11.0519 8.11079 11.2153 8.51432 11.2273 8.93793C11.2153 9.36154 11.0519 9.76507 10.7691 10.07C10.3352 10.5806 10.0913 11.2358 10.0815 11.9171H11.2273C11.2394 11.4935 11.4027 11.09 11.6856 10.7851C12.6015 9.73772 12.6015 8.13814 11.6856 7.09075C11.4027 6.78585 11.2394 6.38232 11.2273 5.95871C11.2399 5.53539 11.4033 5.13186 11.6856 4.82667C12.1197 4.31607 12.3634 3.66087 12.3732 2.97949Z" fill="#B0B0B0"/>
<path d="M21.9977 2.97949H20.8518C20.8393 3.40281 20.6759 3.80634 20.3936 4.11154C19.9594 4.62214 19.7158 5.27733 19.706 5.95871C19.7158 6.64009 19.9597 7.29528 20.3936 7.80588C20.6764 8.11079 20.8398 8.51432 20.8518 8.93793C20.8398 9.36154 20.6764 9.76507 20.3936 10.07C19.9597 10.5806 19.7158 11.2358 19.706 11.9171H20.8518C20.8639 11.4935 21.0272 11.09 21.3101 10.7851C22.226 9.73772 22.226 8.13814 21.3101 7.09075C21.0272 6.78585 20.8639 6.38232 20.8518 5.95871C20.8644 5.53539 21.0278 5.13186 21.3101 4.82667C21.7442 4.31607 21.9879 3.66087 21.9977 2.97949Z" fill="#B0B0B0"/>
<path d="M29.331 12.3752C28.3186 12.3752 27.4977 13.1961 27.4977 14.2086C27.4977 15.2211 28.3186 16.042 29.331 16.042C30.3435 16.042 31.1644 15.2211 31.1644 14.2086C31.1644 13.1961 30.3435 12.3752 29.331 12.3752ZM29.331 14.8197C28.9936 14.8197 28.7199 14.5461 28.7199 14.2086C28.7199 13.8711 28.9936 13.5975 29.331 13.5975C29.6685 13.5975 29.9422 13.8711 29.9422 14.2086C29.9422 14.5461 29.6685 14.8197 29.331 14.8197Z" fill="#B0B0B0"/>
<path d="M43.7696 11.2296C43.7696 12.2421 44.5905 13.063 45.603 13.063C46.6154 13.063 47.4363 12.2421 47.4363 11.2296C47.4363 10.2171 46.6154 9.39624 45.603 9.39624C44.5905 9.39624 43.7696 10.2171 43.7696 11.2296ZM46.2141 11.2296C46.2141 11.5671 45.9404 11.8407 45.603 11.8407C45.2655 11.8407 44.9918 11.5671 44.9918 11.2296C44.9918 10.8921 45.2655 10.6185 45.603 10.6185C45.9404 10.6185 46.2141 10.8921 46.2141 11.2296Z" fill="#B0B0B0"/>
<path d="M40.7897 14.2085H41.9356V15.5835H40.7897V14.2085Z" fill="#B0B0B0"/>
<path d="M27.4977 9.39624H28.6435V10.7713H27.4977V9.39624Z" fill="#B0B0B0"/>
<path d="M38.4988 11.2292H39.6447V12.3751H38.4988V11.2292Z" fill="#B0B0B0"/>
<path d="M36.4354 9.61126C36.1526 9.30636 35.9892 8.90283 35.9772 8.47922C35.9898 8.0559 36.1532 7.65237 36.4354 7.34717C36.8696 6.83657 37.1133 6.18138 37.1231 5.5H35.9772C35.9646 5.92332 35.8013 6.32685 35.519 6.63204C35.0848 7.14264 34.8412 7.79784 34.8314 8.47922C34.8412 9.1606 35.0851 9.81579 35.519 10.3264C35.8018 10.6313 35.9652 11.0348 35.9772 11.4584C35.9652 11.882 35.8018 12.2856 35.519 12.5905C35.0851 13.1011 34.8412 13.7563 34.8314 14.4377H35.9772C35.9892 14.014 36.1526 13.6105 36.4354 13.3056C36.8693 12.795 37.1133 12.1398 37.1231 11.4584C37.1133 10.7771 36.8693 10.1219 36.4354 9.61126Z" fill="#B0B0B0"/>
<path d="M32.3108 0.458252H31.165C31.1524 0.881569 30.989 1.2851 30.7067 1.5903C30.2726 2.10089 30.0289 2.75609 30.0191 3.43747C30.0289 4.11885 30.2728 4.77404 30.7067 5.28464C30.9896 5.58955 31.1529 5.99308 31.165 6.41669C31.1529 6.84029 30.9896 7.24383 30.7067 7.54873C30.2728 8.05933 30.0289 8.71453 30.0191 9.39591H31.165C31.177 8.9723 31.3404 8.56876 31.6232 8.26386C32.5391 7.21648 32.5391 5.6169 31.6232 4.56951C31.3404 4.26461 31.177 3.86108 31.165 3.43747C31.1775 3.01415 31.3409 2.61062 31.6232 2.30543C32.0574 1.79483 32.301 1.13963 32.3108 0.458252Z" fill="#B0B0B0"/>
<path d="M41.9353 1.14551H40.7895C40.7769 1.56882 40.6135 1.97236 40.3312 2.27755C39.8971 2.78815 39.6534 3.44335 39.6436 4.12473C39.6534 4.80611 39.8973 5.4613 40.3312 5.9719C40.6141 6.2768 40.7774 6.68034 40.7895 7.10394C40.7774 7.52755 40.6141 7.93108 40.3312 8.23599C39.8973 8.74659 39.6534 9.40178 39.6436 10.0832H40.7895C40.8015 9.65955 40.9649 9.25602 41.2477 8.95112C42.1636 7.90374 42.1636 6.30415 41.2477 5.25677C40.9649 4.95187 40.8015 4.54833 40.7895 4.12473C40.8021 3.70141 40.9654 3.29788 41.2477 2.99268C41.6819 2.48208 41.9255 1.82689 41.9353 1.14551Z" fill="#B0B0B0"/>
<path d="M49.5413 16.7135L25.0017 16.6997L0.45754 16.7135C0.45754 16.7135 -1.39645 29.6914 2.35966 33.4429C6.11576 37.1944 5.98514 39.6603 24.9948 39.6603C44.0045 39.6603 43.8831 37.2059 47.6392 33.459C51.3953 29.712 49.5413 16.7135 49.5413 16.7135Z" fill="black"/>
<path d="M30.4533 39.1569C30.4379 39.1242 30.427 39.0897 30.4209 39.0541C30.3308 39.3793 30.3055 39.6594 30.2281 39.9268C30.1507 40.1942 30.1014 40.4715 29.8579 40.7263C29.8239 40.5897 29.8378 40.4456 29.8973 40.3181C30.027 39.9274 30.0517 39.5095 29.9691 39.1062C29.9114 38.7557 29.8284 38.4109 29.7439 38.066C29.7188 37.9959 29.6858 37.9288 29.6454 37.8662L29.5835 37.8746C29.5617 37.9354 29.5485 37.9988 29.544 38.0632C29.5497 38.2507 29.5065 38.4365 29.4188 38.6023C29.3568 38.7304 29.2949 38.8599 29.2428 38.9908C29.1746 39.1165 29.1271 39.2525 29.1021 39.3933C29.0594 39.9346 29.107 40.4792 29.2428 41.005C29.3329 41.3202 29.4385 41.6327 29.5089 41.9536C29.6015 42.2783 29.6429 42.6155 29.6313 42.953C29.568 43.6216 29.2217 44.1606 28.8206 44.6603C28.4758 45.06 28.0614 45.3938 27.5974 45.6456C26.9536 46.0504 26.2006 46.247 25.4411 46.2086C25.3829 46.1999 25.3255 46.1867 25.2694 46.1692C25.2947 46.1326 25.3003 46.1129 25.3144 46.1058C25.3429 46.0847 25.3748 46.0685 25.4087 46.058C25.9367 45.9342 26.4351 45.7074 26.8754 45.3908C27.1722 45.1939 27.421 44.9327 27.6031 44.6265C27.7044 44.4323 27.7621 44.2183 27.772 43.9995C27.782 43.7807 27.744 43.5624 27.6608 43.3598C27.6002 43.2007 27.5341 43.0445 27.4468 42.8291C27.6619 42.9075 27.8567 43.033 28.0169 43.1964C28.1772 43.3598 28.2988 43.557 28.373 43.7736C28.3962 43.7699 28.4189 43.7632 28.4405 43.7539C28.4639 43.7411 28.4837 43.7227 28.4982 43.7004C28.7064 43.3581 28.8344 42.9731 28.8726 42.5744C28.9064 41.8706 28.76 41.195 28.6756 40.5081C28.6034 39.9964 28.6516 39.4749 28.8163 38.9852C28.8867 38.7839 28.981 38.591 29.0697 38.3968C29.1826 38.1751 29.2496 37.9328 29.2668 37.6846C29.2808 37.3299 29.3005 36.9808 29.3104 36.6219C29.3001 36.301 29.3743 35.9831 29.5257 35.7C29.5342 35.6859 29.5131 35.6549 29.5018 35.6212C28.9824 35.8604 28.7812 36.3573 28.5391 36.8063C28.508 36.8064 28.4772 36.8 28.4486 36.7877C28.4201 36.7753 28.3944 36.7573 28.3731 36.7345C28.3518 36.7118 28.3355 36.685 28.325 36.6557C28.3146 36.6264 28.3103 36.5952 28.3125 36.5642C28.3068 36.4221 28.2885 36.2808 28.2576 36.1419C28.0736 35.3857 28.1332 34.5906 28.4279 33.8702C28.4492 33.7952 28.4638 33.7184 28.4715 33.6408C28.3837 33.6779 28.3006 33.7251 28.2238 33.7815C27.5341 34.4853 27.1738 35.3396 27.0372 36.3151C26.9795 36.27 26.9303 36.2278 26.9218 36.1743C26.8641 35.9333 26.8297 35.6872 26.8191 35.4396C26.8289 35.0491 26.8684 34.66 26.9373 34.2756C27.0694 33.4934 27.3371 32.7403 27.7283 32.0503C27.7538 32.0018 27.7754 31.9514 27.7931 31.8996L27.7537 31.8588C27.5072 31.9752 27.2679 32.1063 27.0372 32.2515C26.8098 32.4088 26.6031 32.5942 26.4221 32.8033C26.2552 33.0276 26.1033 33.2627 25.9675 33.507C25.876 33.2959 25.9675 33.1552 26.0323 33.0172C26.1575 32.7428 26.2941 32.4725 26.4306 32.2023C26.7978 31.4585 26.9854 30.6389 26.9781 29.8095C26.9781 29.604 26.9866 29.3985 26.9781 29.1944C26.9708 28.9977 26.9453 28.8022 26.9021 28.6102C26.8937 28.526 26.867 28.4446 26.824 28.3717C26.781 28.2988 26.7226 28.2361 26.653 28.188C26.5946 28.2455 26.5409 28.3076 26.4925 28.3738C26.4572 28.445 26.4275 28.5189 26.4038 28.5948C26.1969 29.1001 25.8408 29.5012 25.4735 29.8869C25.3074 30.06 25.13 30.2219 24.9653 30.3964C24.9372 30.426 24.9485 30.4907 24.9414 30.5372C24.9893 30.5372 25.0456 30.5597 25.0822 30.5372C25.2328 30.4597 25.3778 30.3725 25.5213 30.2838C25.678 30.1739 25.8623 30.1101 26.0534 30.0994C25.9985 30.2064 25.9577 30.2908 25.9126 30.3725C25.7038 30.746 25.5511 31.1481 25.4594 31.5661C25.3918 31.8954 25.3186 32.2262 25.2483 32.5513C25.1188 33.1439 24.8893 33.6774 24.4417 34.0996C24.2064 34.3163 23.9277 34.4804 23.624 34.581C23.9561 33.9786 23.9547 33.9729 24.0279 33.2495C24.0458 33.0825 24.075 32.917 24.1152 32.754C24.1448 32.6273 24.2109 32.5091 24.2377 32.3824C24.2728 32.2177 24.2742 32.046 24.3108 31.8828C24.3643 31.6421 24.3939 31.3915 24.5529 31.179C24.5726 31.1522 24.5614 31.1016 24.5684 31.0213C24.5063 31.0569 24.4474 31.0979 24.3925 31.1438C24.2391 31.3057 24.0927 31.4732 23.9421 31.6364C23.7233 31.859 23.5548 32.1258 23.448 32.419C23.3298 32.7709 23.144 33.1031 23.175 33.493C23.175 33.5338 23.1088 33.5788 23.0736 33.6211C23.037 33.5887 22.985 33.5605 22.9681 33.5197C22.9371 33.4381 22.9329 33.3466 22.9061 33.2621C22.8315 33.0257 22.7583 32.7892 22.6711 32.5584C22.6462 32.4925 22.6085 32.4322 22.5601 32.381C22.5118 32.3298 22.4539 32.2887 22.3896 32.26C22.3727 32.3064 22.3516 32.3346 22.3558 32.3543C22.4431 32.6738 22.3431 32.9666 22.239 33.2607C21.9508 34.0828 21.6027 34.8825 21.1974 35.6535C20.9973 36.0212 20.8914 36.4327 20.8891 36.8513C20.8891 36.8865 20.8554 36.9217 20.8314 36.9724C20.7019 36.8865 20.7315 36.7711 20.7315 36.6726C20.738 36.2793 20.6245 35.8935 20.4064 35.5663C20.277 35.3626 20.1143 35.1823 19.925 35.0328C19.925 35.1623 19.925 35.2256 19.925 35.2876C19.9475 35.5691 19.9911 35.8506 19.9925 36.1321C19.9925 36.5769 19.9475 37.0216 19.9559 37.465C19.9663 37.713 20.0108 37.9583 20.0883 38.1941C20.143 38.3908 20.239 38.5736 20.3698 38.7304C20.5963 38.9686 20.8405 39.1892 21.1003 39.3905C21.5873 39.786 20.7456 39.5468 20.9004 40.1506C20.9919 40.5095 22.2193 41.6116 22.2967 41.9804C22.3304 42.1451 22.3755 42.3083 22.4065 42.4744C22.5233 43.0853 22.6303 43.6976 22.7527 44.3042C22.8259 44.6716 22.9202 45.0418 23.1961 45.3162C23.3891 45.499 23.5951 45.6674 23.8126 45.8201C23.9533 45.9271 24.1194 46.0087 24.3179 46.1298C23.9953 46.1634 23.6692 46.1337 23.3579 46.0425C22.6837 45.868 22.1939 45.4288 21.7266 44.9362C21.3044 44.49 21.1017 43.9509 20.9637 43.3795C20.9637 43.3626 20.9834 43.3386 21.006 43.2936C21.2541 43.6816 21.5958 44.0011 21.9997 44.2226C22.1151 44.0818 22.0123 44.0241 21.9631 43.9411C21.8125 43.7032 21.5887 43.5033 21.5408 43.2134C21.4814 42.9171 21.4387 42.6178 21.4127 42.3168C21.3722 41.57 21.1972 40.8366 20.8962 40.152C20.6888 39.7266 20.3977 39.3475 20.0404 39.0372C19.8191 38.8561 19.5879 38.6874 19.3479 38.5319C19.3267 38.751 19.3267 38.9716 19.3479 39.1906C19.4886 39.8452 19.659 40.4884 20.0517 41.05C20.0964 41.1044 20.13 41.1671 20.1505 41.2344C20.1711 41.3018 20.1781 41.3726 20.1713 41.4427C20.1042 41.4065 20.0398 41.3656 19.9785 41.3202C19.7913 41.1556 19.6083 40.9867 19.4267 40.8163C19.3465 40.7403 19.2775 40.6503 19.1199 40.6756C19.3356 41.3609 19.4276 42.0792 19.3915 42.7967C19.391 42.9829 19.4118 43.1685 19.4535 43.3499C19.5337 43.7243 19.6083 44.1086 19.8673 44.407C20.0798 44.6491 20.3064 44.8785 20.5288 45.1107C20.5482 45.1284 20.5665 45.1472 20.5837 45.167L20.5978 45.1797C20.93 45.5006 21.0651 45.4457 21.8223 45.8342C22.6317 46.2466 24.4812 46.7688 25.8113 46.5886C27.0654 46.4183 27.9676 45.8989 28.9529 45.2332C29.0089 45.1899 29.0676 45.1504 29.1288 45.1149C29.4398 44.9499 29.7202 44.7328 29.9579 44.4731C30.152 44.2291 30.3288 43.9718 30.4871 43.7032C30.5687 43.5624 30.5687 43.3949 30.6278 43.2472C30.8425 42.7069 30.9781 42.1385 31.0304 41.5595C31.0933 40.7181 30.8916 39.878 30.4533 39.1569ZM23.189 39.0935C23.1764 39.1217 23.1468 39.1414 23.0919 39.2005C23.0764 39.0288 23.0722 38.9007 23.0511 38.7782C22.9918 38.427 22.8542 38.0936 22.6486 37.8028C22.4358 37.5054 22.2859 37.1678 22.208 36.8105C22.101 36.3108 22.2502 35.8773 22.6077 35.4508C22.6204 35.5339 22.6373 35.5691 22.626 35.5916C22.4304 35.9773 22.5852 36.3094 22.7921 36.6332C22.8723 36.7598 22.9681 36.8781 23.0525 37.0033C23.5114 37.6733 23.5381 38.3715 23.189 39.0935ZM25.0906 44.6561C25.1188 44.6139 25.1342 44.5604 25.1638 44.5519C25.4453 44.4633 25.5044 44.2141 25.5861 43.9777C25.6677 43.7412 25.6044 43.4709 25.5635 43.2176C25.4735 42.6546 25.5072 42.1014 25.8845 41.6271C25.9526 41.5348 26.0337 41.4528 26.1252 41.3836C26.3124 41.2513 26.5094 41.1302 26.7079 41.012C26.7748 40.9853 26.8448 40.9668 26.9162 40.9571C26.9162 41.0345 26.9162 41.0599 26.9077 41.0683C26.6122 41.3048 26.5319 41.6595 26.4095 41.9874C26.3725 42.1148 26.3572 42.2476 26.3644 42.3801C26.3644 42.6616 26.387 42.9431 26.3644 43.2331C26.3124 43.9917 25.9126 44.5139 25.1877 44.6842C25.1624 44.6941 25.1357 44.6758 25.0906 44.6561Z" fill="#FF8F00"/>
<path d="M35.8309 49.0093C35.8172 48.953 35.7836 48.9035 35.7362 48.8701C35.6888 48.8367 35.631 48.8217 35.5733 48.8277C35.3871 48.8255 35.2019 48.8009 35.0216 48.7546C34.5317 48.6138 33.9941 48.6138 33.5732 48.2647C33.55 48.2519 33.5248 48.2428 33.4986 48.238C33.2171 48.1409 32.9215 48.0536 32.64 47.9452C32.1027 47.7328 31.5473 47.5693 30.9805 47.4568C30.6816 47.4158 30.3875 47.3455 30.1022 47.2471C29.7236 47.0979 29.3436 47.1345 28.9762 47.1922C28.3738 47.2837 27.7812 47.4371 27.183 47.5624C27.1619 47.5624 27.1366 47.5511 27.062 47.5314C27.1504 47.4604 27.2446 47.3969 27.3435 47.3414C27.8769 47.1035 28.4104 46.8628 28.9523 46.6376C29.4717 46.4265 30.0009 46.2421 30.5245 46.0408C30.7681 45.9568 31.006 45.8571 31.2367 45.7424C31.9264 45.3709 32.6119 44.9922 33.2875 44.5995C33.4584 44.4884 33.6112 44.3517 33.7407 44.1942C33.7841 44.1429 33.8111 44.0799 33.8184 44.0132C33.8257 43.9465 33.8128 43.8791 33.7815 43.8198C33.6964 43.6056 33.6241 43.3866 33.5648 43.1638C33.4859 42.8908 33.3579 42.7965 33.0961 42.8978C32.6822 43.0597 32.2811 43.2511 31.8757 43.4327C31.8331 43.4471 31.7961 43.4747 31.7702 43.5115C31.6702 43.7494 31.4295 43.8029 31.2466 43.9338C31.0932 44.0378 30.9573 44.1656 30.844 44.3124C30.6358 44.6074 30.3843 44.8693 30.098 45.0893L30.0811 45.1048C29.5713 45.5404 29.0219 45.9273 28.4399 46.2604C27.5054 46.8122 26.2118 47.0923 25.0943 47.2006C23.9767 47.309 23.1392 46.8938 21.9175 46.4448C21.4421 46.2749 20.9976 46.0286 20.6014 45.7157C20.2129 45.4469 19.8245 45.1808 19.4501 44.8951C19.1869 44.6683 18.8755 44.5046 18.5394 44.4165C18.1323 44.321 17.7365 44.1828 17.3585 44.0041C17.0629 43.8718 16.7434 43.7902 16.452 43.6931C16.2972 43.9098 16.1494 44.0872 16.0368 44.2828C15.9621 44.393 15.9301 44.5266 15.9467 44.6586C16.0678 45.0387 16.1494 45.4694 16.6505 45.5552C16.6923 45.5702 16.7324 45.5895 16.7701 45.6129C17.4282 45.9278 18.12 46.1668 18.8322 46.3252C19.0841 46.373 19.3375 46.4195 19.5838 46.4898C20.006 46.6081 20.417 46.7446 20.8337 46.8741C20.9223 46.9022 21.0096 46.9332 21.1532 46.9811C21.0855 47.0239 21.0144 47.0611 20.9406 47.0923C20.4461 47.2415 19.9511 47.3869 19.4557 47.5286C19.4057 47.5477 19.3509 47.5501 19.2995 47.5356C19.1348 47.4554 19.0053 47.5356 18.8772 47.613C18.7192 47.7278 18.5542 47.8327 18.3831 47.9269C17.8947 48.1437 17.3979 48.3492 16.9038 48.5364C16.7006 48.6002 16.4911 48.6422 16.2789 48.6617C15.9974 48.7025 15.7159 48.7109 15.4344 48.7658C15.2219 48.82 15.0132 48.8877 14.8094 48.9685C14.6082 49.0361 14.4027 49.0966 14.207 49.1768C14.1409 49.1989 14.0844 49.2429 14.0468 49.3015C14.0091 49.3601 13.9927 49.4299 14.0001 49.4991C14.0041 49.6745 14.0616 49.8444 14.1648 49.9861C14.6588 49.7764 15.1149 49.4907 15.6539 49.4231C16.193 49.3556 16.7054 49.2542 17.2416 49.2162C17.2416 49.257 17.2416 49.2782 17.2318 49.2894C17.2152 49.3098 17.1963 49.3282 17.1755 49.3443C16.9967 49.4851 16.7729 49.4696 16.566 49.5048C16.0569 49.5824 15.5624 49.7367 15.0994 49.9622C14.9178 50.0537 14.7433 50.1607 14.5659 50.2606C14.3886 50.3605 14.3421 50.4717 14.4561 50.6547C14.6405 50.9517 14.8474 51.2318 15.2218 51.3134C15.2528 51.3134 15.2767 51.3514 15.3007 51.3697C15.281 51.4598 15.2584 51.5372 15.2472 51.6161C15.2035 51.9145 15.3105 52.0172 15.6047 51.9553C15.7609 51.9215 15.9157 51.875 16.0734 51.8553C16.7117 51.7876 17.3297 51.5918 17.8905 51.2797C18.6233 50.8418 19.394 50.4706 20.1932 50.1705C20.6816 49.98 21.1471 49.7355 21.5811 49.4414C21.636 49.4062 21.6979 49.3809 21.7711 49.3443C21.7894 49.3934 21.7918 49.447 21.7779 49.4976C21.764 49.5481 21.7345 49.593 21.6937 49.6258C21.3826 49.9538 21.0856 50.2972 20.7506 50.5998C20.448 50.8743 20.0989 51.0939 19.7794 51.35C19.5488 51.5305 19.3289 51.7241 19.1207 51.9299C18.9799 52.0707 18.9799 52.1763 19.1305 52.3212C19.2225 52.404 19.323 52.4766 19.4304 52.538C19.8357 52.804 20.3086 52.9603 20.6169 53.3825C20.7394 53.5486 20.9167 53.5233 21.0392 53.3333C21.2432 53.0194 21.5431 52.8111 21.8077 52.5619C22.0638 52.3452 22.2956 52.1012 22.4988 51.8342C22.8558 51.3031 23.2494 50.7975 23.6769 50.3211C23.8936 50.079 24.109 49.8341 24.3243 49.592C24.0696 49.3021 23.8218 49.0361 23.5896 48.756C23.3574 48.4759 23.1392 48.1789 22.9154 47.8903L22.9633 47.8411C23.0181 47.8875 23.073 47.9326 23.1265 47.9818C23.4446 48.2774 23.7599 48.5758 24.0808 48.8686C24.1512 48.9319 24.2469 48.9671 24.3187 49.0304C24.6002 49.2768 24.862 49.54 25.1506 49.7736C25.5373 50.0879 25.8953 50.436 26.2203 50.8138C26.4581 51.0953 26.7059 51.3599 26.955 51.6259C27.4676 52.1827 28.0312 52.6902 28.6384 53.1418C28.9973 53.4036 29.3858 53.6274 29.6884 53.9624C29.7343 54.0094 29.7905 54.0451 29.8525 54.0666C29.9146 54.0881 29.9808 54.0949 30.0459 54.0863C30.2339 54.0796 30.4175 54.0272 30.5806 53.9334C30.7437 53.8397 30.8815 53.7076 30.982 53.5486C31.104 53.3428 31.2053 53.1255 31.2846 52.8997C31.3446 52.7546 31.3561 52.5939 31.3173 52.4417C31.2785 52.2894 31.1915 52.1539 31.0692 52.0552C30.7427 51.7737 30.4274 51.4641 30.0924 51.1854C29.4689 50.6688 28.8341 50.1663 28.2063 49.6554C28.1345 49.5977 28.0655 49.5273 28.0064 49.4625L28.036 49.4161C28.1514 49.4541 28.2696 49.4865 28.3822 49.5329C28.9058 49.7527 29.4421 49.9407 29.9882 50.0959C30.4175 50.2099 30.851 50.3183 31.2677 50.4675C31.9546 50.7138 32.633 50.9841 33.31 51.2557C33.7491 51.4516 34.2167 51.5761 34.695 51.6245C34.8175 51.633 34.9441 51.6456 35.0272 51.4936C34.9899 51.4676 34.9508 51.4441 34.9104 51.4232C34.1855 51.1079 33.4592 50.7997 32.7385 50.4774C32.5236 50.3995 32.3305 50.2711 32.1755 50.103C32.3022 50.0073 32.3951 50.0804 32.4894 50.117C32.8146 50.2395 33.1327 50.3817 33.462 50.483C34.0391 50.6618 34.6359 50.7758 35.1862 51.0376C35.2732 51.0705 35.3626 51.0964 35.4537 51.115C35.6789 50.8673 35.6564 50.7406 35.3819 50.6223C35.3171 50.5942 35.2411 50.5717 35.1848 50.5407C35.1285 50.5097 35.061 50.4703 34.999 50.4351C35.0722 50.4091 35.1511 50.4038 35.2271 50.4197C35.3365 50.4389 35.4493 50.4218 35.5481 50.371C35.647 50.3201 35.7265 50.2384 35.7746 50.1382C36.0054 49.7694 35.9463 49.3922 35.8309 49.0093ZM31.1509 45.1569C31.5421 44.9308 31.9348 44.706 32.329 44.4827C32.3714 44.4473 32.4256 44.4291 32.4809 44.4317C32.5361 44.4343 32.5884 44.4575 32.6274 44.4968C32.5908 44.5531 32.5654 44.6375 32.5105 44.6727C32.1029 44.9585 31.6499 45.1731 31.1706 45.3075C31.1494 45.3075 31.1213 45.2948 31.0495 45.2765C31.0988 45.2188 31.1185 45.1766 31.1509 45.1569ZM17.6949 49.2092C17.5766 49.1698 17.5541 49.0515 17.6709 48.9629C17.7616 48.8886 17.8674 48.8349 17.9809 48.8058C18.0945 48.7766 18.213 48.7726 18.3283 48.794C18.2522 49.0727 17.9102 49.281 17.6949 49.2092ZM21.1785 52.4381C21.163 52.4507 21.118 52.4254 21.087 52.4184C21.1053 52.3606 21.1236 52.3029 21.1504 52.2227C21.2418 52.3212 21.2447 52.3846 21.1785 52.4381ZM23.149 50.3408C23.1195 50.3971 23.1124 50.4366 23.0885 50.4563C22.8443 50.6773 22.6338 50.9329 22.4636 51.2149C22.2285 51.5485 21.9006 51.7779 21.5698 52.0045C21.5529 52.0172 21.5191 52.0045 21.4924 52.0045C21.4597 51.961 21.4448 51.9066 21.4508 51.8524C21.4568 51.7983 21.4833 51.7485 21.5248 51.7132C21.6483 51.5741 21.7814 51.4438 21.9231 51.3233C22.1547 51.1581 22.3622 50.9615 22.5396 50.7392C22.6344 50.6212 22.7409 50.5132 22.8577 50.4168C22.8913 50.3741 22.938 50.3436 22.9906 50.3298C23.0432 50.3161 23.0988 50.32 23.149 50.3408ZM28.6004 50.4816C28.6588 50.4965 28.7148 50.5197 28.7665 50.5506C29.0902 50.8124 29.4182 51.0699 29.7278 51.3472C30.0375 51.6245 30.3429 51.9342 30.6427 52.2354C30.7553 52.3466 30.8665 52.4704 30.799 52.6675C30.7028 52.7226 30.5896 52.7401 30.4812 52.7167C30.3728 52.6933 30.277 52.6307 30.212 52.5408C30.0634 52.3657 29.9402 52.1705 29.8461 51.9609C29.7437 51.7148 29.5757 51.5016 29.3605 51.3444C29.0655 51.1074 28.7986 50.8372 28.5652 50.5393L28.6004 50.4816ZM31.6365 49.9932C31.6148 50.0173 31.5876 50.0356 31.5571 50.0467C31.5267 50.0577 31.494 50.0611 31.4619 50.0565C31.2708 49.9978 31.0829 49.9292 30.8989 49.851C30.851 49.8313 30.8173 49.7736 30.7779 49.7342C30.7863 49.7159 30.7962 49.6976 30.8046 49.6807C30.8451 49.671 30.887 49.6681 30.9285 49.6723C31.1241 49.7243 31.3169 49.7821 31.5112 49.8384C31.5942 49.8552 31.6773 49.889 31.6379 49.9876L31.6365 49.9932Z" fill="black"/>
<path d="M33.1103 36.4248C33.1163 36.5039 33.1058 36.5835 33.0794 36.6584C33.053 36.7333 33.0112 36.8018 32.9568 36.8597C32.4655 37.3995 31.8615 37.8248 31.1876 38.1054C31.113 38.1377 31.0201 38.1715 30.9765 38.0814C30.9696 38.05 30.9698 38.0175 30.9768 37.9861C30.9839 37.9548 30.9977 37.9253 31.0173 37.8999C31.158 37.7211 31.3129 37.548 31.4705 37.3819C31.7281 37.113 31.9857 36.8456 32.2573 36.5894C32.4086 36.4418 32.5773 36.3133 32.7598 36.2066C32.9934 36.0771 33.0962 36.1545 33.1103 36.429V36.4248Z" fill="#FF8F00"/>
<path d="M17.0327 36.2114C17.0985 36.2695 17.1589 36.3336 17.2128 36.4028C17.3269 36.5816 17.4183 36.7773 17.5408 36.9504C17.7041 37.1798 17.8913 37.3938 18.063 37.619C18.1884 37.7784 18.3053 37.9442 18.4135 38.1158C18.4246 38.1471 18.4276 38.1807 18.4222 38.2134C18.4168 38.2462 18.4031 38.277 18.3825 38.303C18.3487 38.334 18.2516 38.3185 18.1953 38.2946C18.1251 38.2556 18.0599 38.2084 18.0011 38.1538C17.7561 37.9638 17.4986 37.7879 17.272 37.5781C17.0859 37.4019 16.9189 37.2066 16.7737 36.9954C16.71 36.8882 16.6837 36.7628 16.699 36.639C16.7143 36.5151 16.7703 36.3999 16.8581 36.3114C16.9136 36.2735 16.972 36.2401 17.0327 36.2114Z" fill="#FF8F00"/>
<path d="M18.9394 43.2108C18.7142 42.9856 18.4256 42.8561 18.2666 42.5732C18.2015 42.4675 18.1286 42.3668 18.0484 42.272C17.9958 42.2156 17.9644 42.1426 17.9595 42.0657C17.9547 41.9887 17.9766 41.9124 18.0217 41.8497C18.1174 41.7005 18.2103 41.5485 18.3144 41.405C18.4186 41.2614 18.4791 41.2642 18.603 41.3613C18.6957 41.4276 18.7703 41.5162 18.8197 41.6189C18.8904 41.8093 18.9454 42.0051 18.9844 42.2044C19.026 42.5401 19.0108 42.8803 18.9394 43.2108Z" fill="black"/>
<path d="M19.3882 34.7008C19.3168 34.6877 19.2494 34.6583 19.1913 34.6148C19.1332 34.5713 19.0859 34.515 19.0532 34.4502C18.814 34.0772 18.5873 33.6972 18.334 33.3341C18.1468 33.0652 18.2355 32.8048 18.3762 32.5937C18.486 32.4304 18.645 32.4389 18.7295 32.6148C18.8627 32.8963 18.9852 33.1816 19.0969 33.4706C19.2067 33.7605 19.2939 34.0589 19.3953 34.3531C19.4319 34.4615 19.4896 34.5671 19.3882 34.7008Z" fill="#FF8F00"/>
<path d="M30.8775 33.0622C30.8522 33.1222 30.8175 33.1778 30.7747 33.2268C30.3637 33.6153 29.964 34.0193 29.4713 34.3078C29.4437 34.325 29.4127 34.3362 29.3805 34.3405C29.3482 34.3449 29.3154 34.3424 29.2841 34.3332C29.1969 34.2881 29.2236 34.1924 29.2616 34.122C29.2911 34.0683 29.3255 34.0174 29.3644 33.97C29.5966 33.6702 29.8373 33.3746 30.0681 33.0692C30.1753 32.9282 30.328 32.8287 30.5002 32.7877C30.5432 32.7795 30.5874 32.7801 30.6301 32.7897C30.6727 32.7992 30.713 32.8174 30.7484 32.8431C30.7837 32.8689 30.8134 32.9016 30.8356 32.9393C30.8578 32.9769 30.8721 33.0188 30.8775 33.0622Z" fill="#FF8F00"/>
<path d="M31.3672 41.6143C31.4349 41.644 31.5007 41.6779 31.5643 41.7156C31.705 41.8141 31.7487 41.8845 31.6783 42.0492C31.5741 42.2913 31.4446 42.5235 31.3222 42.753C31.3036 42.7938 31.2725 42.8278 31.2335 42.8501C31.1822 42.8744 31.1244 42.8813 31.0688 42.8698C31.0449 42.8698 31.0308 42.7797 31.0365 42.729C31.0512 42.669 31.0705 42.6102 31.0942 42.5531C31.1828 42.2631 31.2701 41.9521 31.3672 41.6143Z" fill="black"/>
<line x1="9.97199" y1="34.2268" x2="6.11625" y2="50.7838" stroke="black" stroke-width="2"/>
<line y1="-1" x2="17" y2="-1" transform="matrix(0.226808 0.97394 0.97394 -0.226808 40.9981 34)" stroke="black" stroke-width="2"/>
</svg>
