<svg width="21" height="20" viewBox="0 0 21 20" fill="none" xmlns="http://www.w3.org/2000/svg">
<path d="M1.3125 10.4746V18.3496C1.3125 19.0741 1.90181 19.6621 2.625 19.6621H9.1875V10.4746H1.3125Z" fill="black"/>
<path d="M19.6875 5.22474H15.5348C15.8327 5.0213 16.0886 4.81917 16.2671 4.63805C17.3263 3.57361 17.3263 1.84111 16.2671 0.776672C15.2381 -0.260203 13.4453 -0.257578 12.4176 0.776672C11.8479 1.34761 10.3386 3.67205 10.5473 5.22474H10.4528C10.6601 3.67205 9.15075 1.34761 8.58244 0.776672C7.55344 -0.257578 5.76056 -0.257578 4.73287 0.776672C3.675 1.84111 3.675 3.57361 4.73156 4.63805C4.91138 4.81917 5.16731 5.0213 5.46525 5.22474H1.3125C0.589312 5.22474 0 5.81405 0 6.53724V8.50599C0 8.86824 0.294 9.16224 0.65625 9.16224H9.1875V6.53724H11.8125V9.16224H20.3438C20.706 9.16224 21 8.86824 21 8.50599V6.53724C21 5.81405 20.412 5.22474 19.6875 5.22474ZM9.11006 5.18142C9.11006 5.18142 9.05494 5.22474 8.86725 5.22474C7.96031 5.22474 6.22913 4.28236 5.66344 3.71274C5.1135 3.15886 5.1135 2.25586 5.66344 1.70198C5.92987 1.43423 6.28294 1.28723 6.65831 1.28723C7.03237 1.28723 7.38544 1.43423 7.65188 1.70198C8.5365 2.59186 9.41588 4.86511 9.11006 5.18142ZM12.1314 5.22474C11.9451 5.22474 11.8899 5.18274 11.8899 5.18142C11.5841 4.86511 12.4635 2.59186 13.3481 1.70198C13.8771 1.1678 14.8024 1.16517 15.3366 1.70198C15.8878 2.25586 15.8878 3.15886 15.3366 3.71274C14.7709 4.28236 13.0397 5.22474 12.1314 5.22474Z" fill="black"/>
<path d="M11.8125 10.4746V19.6621H18.375C19.0995 19.6621 19.6875 19.0741 19.6875 18.3496V10.4746H11.8125Z" fill="black"/>
</svg>
