<svg width="57" height="57" viewBox="0 0 57 57" fill="none" xmlns="http://www.w3.org/2000/svg">
<path d="M41.1837 31.226L37.385 35.0247L33.5823 31.222L42.7062 22.0982C43.7092 22.3806 44.7331 22.5187 45.7512 22.5186C48.6809 22.5184 51.5573 21.3737 53.7061 19.2248C56.867 16.0639 57.8552 11.3303 56.2238 7.16545L55.2933 4.79002L49.3217 10.7617L46.9106 10.1156L46.2644 7.70434L52.2359 1.73272L49.8608 0.80238C45.6963 -0.828862 40.9625 0.15923 37.8014 3.32012C34.9058 6.21574 33.8335 10.431 34.9282 14.32L25.8043 23.4438L13.5523 11.1918L16.8029 7.94134L6.72782 0L0 6.7277L7.94123 16.8029L11.1919 13.5523L23.4439 25.8043L15.3896 33.8586C11.2067 32.5483 6.64314 33.643 3.49471 36.7914C1.25893 39.0272 0.0275954 41.9998 0.0275954 45.1616C0.0275954 48.3234 1.25893 51.296 3.49471 53.5318C5.80237 55.8394 8.83352 56.9932 11.8649 56.9932C14.8962 56.9932 17.9274 55.8394 20.2351 53.5318C23.3835 50.3833 24.4782 45.8196 23.1679 41.6368L31.2222 33.5826L35.0249 37.3853L31.2262 41.184L44.9786 54.9364C46.3085 56.2663 48.0767 56.9987 49.9575 56.9987C51.8382 56.9987 53.6064 56.2663 54.9364 54.9364C57.6817 52.191 57.6817 47.7241 54.9364 44.9787L41.1837 31.226ZM4.45788 6.99086L6.99097 4.45776L11.786 8.23733L8.23744 11.7859L4.45788 6.99086ZM38.7903 15.1787L38.3919 14.1618C37.2444 11.2324 37.9391 7.90329 40.1618 5.68042C41.7039 4.13841 43.7778 3.33225 45.8825 3.36541L42.5413 6.70679L44.185 12.8411L50.3194 14.4849L53.6605 11.1436C53.6942 13.2478 52.8876 15.3223 51.3456 16.8643C49.1228 19.087 45.7937 19.7819 42.8643 18.6341L41.8475 18.2359L31.2219 28.8614L28.1646 25.8041L38.7903 15.1787ZM19.2612 40.8223L19.6972 41.8569C21.0465 45.0587 20.331 48.7148 17.8746 51.1713C16.2174 52.8283 14.0415 53.6567 11.8648 53.6565C9.68864 53.6564 7.51173 52.828 5.855 51.1713C4.2498 49.5659 3.36563 47.4318 3.36563 45.1615C3.36563 42.8912 4.24969 40.757 5.855 39.1517C7.48736 37.5195 9.6487 36.656 11.8551 36.656C12.9692 36.656 14.095 36.8763 15.1692 37.3291L16.2038 37.765L25.8042 28.1646L28.8615 31.2219L19.2612 40.8223ZM41.1837 35.9467L44.2412 39.0042L39.0043 44.241L35.947 41.1837L41.1837 35.9467ZM52.576 52.576C51.8765 53.2753 50.9466 53.6605 49.9575 53.6605C48.9684 53.6605 48.0384 53.2753 47.3391 52.576L41.3647 46.6016L46.6016 41.3647L52.576 47.3391C54.0197 48.7828 54.0197 51.1321 52.576 52.576Z" fill="#002614"/>
<path d="M11.8648 39.6626C10.3957 39.6626 9.01445 40.2348 7.97573 41.2736C6.9369 42.3124 6.36474 43.6935 6.36474 45.1626C6.36474 46.6318 6.9369 48.0129 7.97562 49.0517C9.01445 50.0905 10.3957 50.6627 11.8648 50.6627C13.3339 50.6627 14.715 50.0905 15.7539 49.0517C17.8983 46.9073 17.8983 43.4179 15.7539 41.2736C14.7151 40.2348 13.3339 39.6626 11.8648 39.6626ZM13.3935 46.6913C12.9852 47.0995 12.4423 47.3244 11.8649 47.3244C11.2874 47.3244 10.7446 47.0995 10.3362 46.6913C9.92799 46.2829 9.70311 45.74 9.70311 45.1626C9.70311 44.5852 9.92799 44.0424 10.3364 43.634C10.7446 43.2256 11.2875 43.0009 11.865 43.0009C12.4424 43.0009 12.9853 43.2257 13.3937 43.634C14.2363 44.4769 14.2363 45.8484 13.3935 46.6913Z" fill="#002614"/>
</svg>
